<?xml version="1.0" encoding="utf-8"?>
<!-- Generator: Adobe Illustrator 23.0.1, SVG Export Plug-In . SVG Version: 6.00 Build 0)  -->
<svg version="1.1" id="Layer_1" xmlns="http://www.w3.org/2000/svg" xmlns:xlink="http://www.w3.org/1999/xlink" x="0px" y="0px"
	 viewBox="0 0 480 90" style="enable-background:new 0 0 480 90;" xml:space="preserve">
<style type="text/css">
	.st0{fill:#C5E8EF;}
</style>
<g>
	<path class="st0" d="M31.1,76.3c0,5.3-4.9,9.1-10.2,9.2c-2.3,0-4.4,0-6-1.5l-8.2-7.8l2.4,1.1c1.1,0.5,2.6,0.8,4.2,0.8
		c5.3,0,10.2-4,10.2-9.2l-0.1-10.4c0-2.9,0.1-4.9-0.3-7.7c-1.3-9.1-6.8-13.1-11.7-20.9c-2.6-4.1-2.3-5.6-2.3-9.2v-5.8
		c0-2.3,1.6-4.7,4-4.7s4.2,2.3,4.2,4.8v6.1c0,6.3-0.7,12.2,1.8,16.2C24,45.1,29,49,30.9,58.2c0.4,1.9,0.3,2.6,0.3,4.3L31.1,76.3
		L31.1,76.3z M17.3,67.4c0,2.3-1.7,4.8-4.1,4.8S9,69.9,9,67.4V51l8.2,7.5L17.3,67.4L17.3,67.4z M23.4,27.9V14.8
		c0-1.1,0.1-1.8-0.2-2.9c-0.3-1.2-0.7-2.1-1.3-3.1l1,1.1l5.5,5.8c0.9,1,2,2.4,2.4,4.1c0.2,0.9,0.3,1.7,0.3,2.7v12.8H25L17.2,28h6.2
		V27.9z M51,45.7h0.8c4.3,0,7.9,0.4,10.8-2.6c2.1-2.2,2.8-4.5,2.8-7.6V14.6c0-1.1-0.1-1.9-0.3-2.9c-0.2-1-0.5-1.9-1.1-2.7l-1.5-1.8
		l1.2,1.2l6.9,6.9c0.7,0.7,1.8,1.8,2.2,3.6c0.3,1.3,0.3,2.3,0.3,3.7V43c0,3.1-0.7,5.4-2.8,7.6c-2.8,3-6.4,2.6-10.7,2.6h-0.8v32.5
		h-6.1L45.1,78H51V45.7z M51,10.3h1.5c2.2,0,4.3,0.2,5.8,1.5c1.1,0.9,1,2.9,1,4.8v16.9c0,1.8,0.2,3.4-0.9,4.8
		c-1.3,1.7-3.7,1.5-5.9,1.5H51V10.3z M95.8,60.4l0.7,8.5l-2.4-2.3v19h-6.1l-7.8-7.5h6.1l1.5-17.7C87.8,60.4,95.8,60.4,95.8,60.4z
		 M88.2,54.3l3.5-32.5h0.1l3.5,32.5H88.2z M111.1,85.5H105L97.2,78h6.1L96.8,4.3l7.9,7.5L111.1,85.5z M148.6,57.9l0.1,18.4
		c0,5.3-4.9,9.1-10.2,9.2c-2.3,0-4.4,0-6-1.5l-8.2-7.8l2.3,1.1c1.1,0.5,2.6,0.8,4.2,0.8c5.3,0,10.2-4,10.2-9.2L140.9,51L148.6,57.9z
		 M134.9,67.4c0,2.3-1.7,4.8-4.1,4.8c-2.4,0-4.2-2.3-4.2-4.8V15.1c0-2.3,1.7-4.8,4.1-4.8c2.4,0,4.2,2.3,4.2,4.8V67.4z M141.2,30.2
		V14.8c0-1.1,0.1-1.8-0.2-2.9s-0.6-1.8-1.1-2.7l1,1l5.4,5.4c1,1,1.8,1.9,2.3,3.5c0.4,1.1,0.3,2.1,0.3,3.4v15.3h-6.1l-7.8-7.5
		L141.2,30.2z M177.4,78v-6l7.7,7.4v6.1h-15.7l-7.8-7.5H177.4z M167.8,39.6V10.4h9.7V4.3l7.7,7.7v5.9h-9.7v21.7
		C175.4,39.6,167.8,39.6,167.8,39.6z M185.4,46.9v6.3h-9.9v18.7h-7.7V45.7h9.7v-6.3L185.4,46.9z M225.4,76.3c0,5.3-4.9,9.1-10.2,9.2
		c-2.3,0-4.4,0-6-1.5l-8.2-7.8l2.3,1.1c1.1,0.5,2.6,0.8,4.2,0.8c5.3,0,10.2-4,10.2-9.2l-0.1-10.4c0-2.9,0.1-4.9-0.3-7.7
		c-1.3-9.1-6.8-13.1-11.7-20.9c-2.5-4.1-2.2-5.6-2.2-9.1V15c0-2.3,1.6-4.7,4-4.7s4.2,2.3,4.2,4.8v6.1c0,6.3-0.7,12.2,1.8,16.2
		c4.9,7.8,9.9,11.7,11.8,20.9c0.4,1.9,0.3,2.6,0.3,4.3v13.7H225.4z M211.6,67.4c0,2.3-1.7,4.8-4.1,4.8c-2.4,0-4.2-2.3-4.2-4.8V51
		l8.2,7.5v8.9H211.6z M217.6,27.9V14.8c0-1.1,0.1-1.8-0.2-2.9c-0.3-1.2-0.7-2.1-1.3-3.1l1,1.1l5.5,5.8c0.9,1,2,2.4,2.4,4.1
		c0.2,0.9,0.3,1.7,0.3,2.7v12.8h-6.1l-7.8-7.3h6.2V27.9z M268.1,57.9l0.1,18.4c0,5.3-4.9,9.1-10.2,9.2c-2.3,0-4.4,0-6-1.5l-8.2-7.8
		l2.3,1.1c1.1,0.5,2.6,0.8,4.2,0.8c5.3,0,10.2-4,10.2-9.2L260.4,51L268.1,57.9z M254.3,67.4c0,2.3-1.7,4.8-4.1,4.8s-4.2-2.3-4.2-4.8
		V15.1c0-2.3,1.7-4.8,4.1-4.8s4.2,2.3,4.2,4.8V67.4z M260.8,30.2V14.8c0-1.1,0.1-1.8-0.2-2.9c-0.3-1.1-0.6-1.8-1.1-2.7l1,1l5.4,5.4
		c1,1,1.8,1.9,2.3,3.5c0.4,1.1,0.3,2.1,0.3,3.4v15.3h-6.1l-7.8-7.5L260.8,30.2z M295.7,85.5h-6.1l-7.8-7.5h6.1V45.7h1.2
		c2.2,0,4.7-0.3,5.8,0.9c1.1,1.2,0.8,3.4,0.8,5.4V85.5z M287.9,10.4l1.8,0.2c2.1,0.2,3.9,0.1,5.5,1.2c1.2,0.8,1,2.9,1,4.8v16.9
		c0,1.8,0.2,3.4-0.9,4.8c-1.3,1.7-3.7,1.5-5.9,1.5h-1.5V10.4z M310.1,85.5h-6l-7.8-7.5h6.1V48.8c0-1.5,0.1-2.8-0.6-4.1
		c-0.7-1.2-1.7-2.1-3.1-2.2l-1.6-0.2v-0.1l1.6-0.3c1.4-0.2,2.4-1.1,3.1-2.2c1-1.6,0.5-3.2,0.5-5.3V14.6c0-1,0.2-1.9-0.2-2.8
		c-0.6-1.1-0.7-2-1.3-2.8l-1.2-1.6l2.8,2.6l5.1,5.1c0.8,0.8,1.9,2.6,2.2,4c0.3,1.5,0.3,1.2,0.3,3v13.8c0,1.7,0.1,3-0.5,4.6
		c-0.9,2.3-2.6,3.5-5.2,4.5l-0.7,0.3l4.6,4.4c0.6,0.5,1.1,1.2,1.4,2c0.6,1.4,0.6,2.6,0.6,4.3L310.1,85.5L310.1,85.5z M338.5,60.4
		l0.7,8.5l-2.4-2.3v19h-6.1l-7.8-7.5h6.1l1.5-17.7C330.5,60.4,338.5,60.4,338.5,60.4z M331,54.3l3.5-32.5h0.1l3.5,32.5H331z
		 M353.8,85.5h-6.1l-7.8-7.5h6.1l-6.5-73.7l7.9,7.5L353.8,85.5z M372.5,45.7h0.8c4.3,0,7.9,0.4,10.8-2.6c2.1-2.2,2.8-4.5,2.8-7.6
		V14.6c0-1.1-0.1-1.9-0.3-2.9c-0.2-1-0.5-1.9-1.1-2.7l-1.5-1.8l1.2,1.2l6.9,6.9c0.7,0.7,1.8,1.8,2.2,3.6c0.3,1.3,0.3,2.3,0.3,3.7V43
		c0,3.1-0.7,5.4-2.8,7.6c-2.8,3-6.4,2.6-10.7,2.6h-0.8v32.5h-6.1l-7.6-7.5h5.9L372.5,45.7L372.5,45.7z M372.5,10.3h1.5
		c2.2,0,4.3,0.2,5.8,1.5c1.1,0.9,1,2.9,1,4.8v16.9c0,1.8,0.2,3.4-0.9,4.8c-1.3,1.7-3.7,1.5-5.9,1.5h-1.5V10.3z M423.8,78v-6l7.7,7.4
		v6.1h-15.7L408,78H423.8z M414,39.6V10.4h9.7V4.3l7.7,7.7v5.9h-9.7v21.7C421.7,39.6,414,39.6,414,39.6z M431.6,46.9v6.3h-9.9v18.7
		H414V45.7h9.7v-6.3L431.6,46.9z M459,85.5h-6.1l-7.8-7.5h6.1V45.7h1.2c2.2,0,4.7-0.3,5.8,0.9c1.1,1.2,0.8,3.4,0.8,5.4V85.5z
		 M451.2,10.4l1.8,0.2c2.1,0.2,3.9,0.1,5.5,1.2c1.2,0.8,1,2.9,1,4.8v16.9c0,1.8,0.2,3.4-0.9,4.8c-1.3,1.7-3.7,1.5-5.9,1.5h-1.5V10.4
		z M473.4,85.5h-6.1l-7.8-7.5h6.1V48.8c0-1.5,0.1-2.8-0.6-4.1c-0.7-1.2-1.7-2.1-3.1-2.2l-1.6-0.2v-0.1l1.6-0.3
		c1.4-0.2,2.4-1.1,3.1-2.2c1-1.6,0.5-3.2,0.5-5.3V14.6c0-1,0.2-1.9-0.2-2.8c-0.6-1.1-0.7-2-1.3-2.8l-1.2-1.6l2.8,2.6l5.1,5.1
		c0.8,0.8,1.9,2.6,2.2,4c0.3,1.5,0.3,1.2,0.3,3v13.8c0,1.7,0.1,3-0.5,4.6c-0.9,2.3-2.6,3.5-5.2,4.5l-0.7,0.3l4.6,4.4
		c0.6,0.5,1.1,1.2,1.4,2c0.6,1.4,0.6,2.6,0.6,4.3L473.4,85.5L473.4,85.5z"/>
</g>
</svg>
